<?xml version="1.0" encoding="UTF-8" standalone="no"?>
<!-- Created with Inkscape (http://www.inkscape.org/) -->

<svg
   xmlns:dc="http://purl.org/dc/elements/1.1/"
   xmlns:cc="http://creativecommons.org/ns#"
   xmlns:rdf="http://www.w3.org/1999/02/22-rdf-syntax-ns#"
   xmlns:svg="http://www.w3.org/2000/svg"
   xmlns="http://www.w3.org/2000/svg"
   xmlns:xlink="http://www.w3.org/1999/xlink"
   xmlns:sodipodi="http://sodipodi.sourceforge.net/DTD/sodipodi-0.dtd"
   xmlns:inkscape="http://www.inkscape.org/namespaces/inkscape"
   width="32"
   height="32"
   id="svg7610"
   sodipodi:version="0.32"
   inkscape:version="0.48.1 r9760"
   sodipodi:docname="history.svg"
   inkscape:output_extension="org.inkscape.output.svg.inkscape"
   version="1.1"
   inkscape:export-filename="/home/wiliam/devel/guanandy/Images/history.png"
   inkscape:export-xdpi="90"
   inkscape:export-ydpi="90">
  <defs
     id="defs7612">
    <linearGradient
       inkscape:collect="always"
       id="linearGradient3524">
      <stop
         style="stop-color:#000000;stop-opacity:1;"
         offset="0"
         id="stop3526" />
      <stop
         style="stop-color:#000000;stop-opacity:0;"
         offset="1"
         id="stop3528" />
    </linearGradient>
    <linearGradient
       inkscape:collect="always"
       id="linearGradient3540">
      <stop
         style="stop-color:#babdb6;stop-opacity:1"
         offset="0"
         id="stop3542" />
      <stop
         style="stop-color:#555753;stop-opacity:1"
         offset="1"
         id="stop3544" />
    </linearGradient>
    <linearGradient
       id="linearGradient3268">
      <stop
         style="stop-color:#000000;stop-opacity:0;"
         offset="0"
         id="stop3270" />
      <stop
         id="stop3276"
         offset="0.5"
         style="stop-color:#000000;stop-opacity:1;" />
      <stop
         style="stop-color:#000000;stop-opacity:0;"
         offset="1"
         id="stop3272" />
    </linearGradient>
    <linearGradient
       inkscape:collect="always"
       id="linearGradient3254">
      <stop
         style="stop-color:#000000;stop-opacity:1;"
         offset="0"
         id="stop3256" />
      <stop
         style="stop-color:#000000;stop-opacity:0;"
         offset="1"
         id="stop3258" />
    </linearGradient>
    <radialGradient
       inkscape:collect="always"
       xlink:href="#linearGradient3254"
       id="radialGradient3177"
       gradientUnits="userSpaceOnUse"
       gradientTransform="matrix(1.6842105,0,0,1.0105263,29.631579,-0.4631579)"
       cx="2"
       cy="44"
       fx="2"
       fy="44"
       r="2.96875" />
    <radialGradient
       inkscape:collect="always"
       xlink:href="#linearGradient3254"
       id="radialGradient3179"
       gradientUnits="userSpaceOnUse"
       gradientTransform="matrix(1.6842105,0,0,1.0105263,-9.3684213,-88.463158)"
       cx="2"
       cy="44"
       fx="2"
       fy="44"
       r="2.96875" />
    <linearGradient
       inkscape:collect="always"
       xlink:href="#linearGradient3268"
       id="linearGradient3181"
       gradientUnits="userSpaceOnUse"
       x1="19.578018"
       y1="40.999493"
       x2="19.578018"
       y2="47.000507" />
    <linearGradient
       inkscape:collect="always"
       xlink:href="#linearGradient3540"
       id="linearGradient3183"
       gradientUnits="userSpaceOnUse"
       gradientTransform="translate(2.0004952,-5.89e-5)"
       x1="10.125"
       y1="18.5"
       x2="13.957738"
       y2="103.93439" />
    <linearGradient
       inkscape:collect="always"
       xlink:href="#linearGradient3524"
       id="linearGradient3185"
       gradientUnits="userSpaceOnUse"
       gradientTransform="matrix(0.8823529,0,0,1,1.6470588,0)"
       x1="22.15625"
       y1="39.21875"
       x2="26.90625"
       y2="38.4375" />
    <radialGradient
       r="12.125"
       fy="27.875"
       fx="16"
       cy="27.875"
       cx="16"
       gradientTransform="matrix(1,0,0,0.2886598,0,19.828608)"
       gradientUnits="userSpaceOnUse"
       id="radialGradient6175"
       xlink:href="#linearGradient6917"
       inkscape:collect="always" />
    <linearGradient
       id="linearGradient6917"
       inkscape:collect="always">
      <stop
         id="stop6919"
         offset="0"
         style="stop-color:#000000;stop-opacity:1;" />
      <stop
         id="stop6921"
         offset="1"
         style="stop-color:#000000;stop-opacity:0;" />
    </linearGradient>
    <radialGradient
       r="17.709194"
       fy="15.491104"
       fx="10.78257"
       cy="15.491104"
       cx="10.78257"
       gradientTransform="matrix(0.4044676,0,0,0.427577,4.3012139,2.476585)"
       gradientUnits="userSpaceOnUse"
       id="radialGradient6177"
       xlink:href="#linearGradient2322"
       inkscape:collect="always" />
    <linearGradient
       id="linearGradient2322">
      <stop
         id="stop2324"
         offset="0"
         style="stop-color:white;stop-opacity:1;" />
      <stop
         id="stop2326"
         offset="1"
         style="stop-color:#c1c7bc;stop-opacity:1;" />
    </linearGradient>
    <radialGradient
       r="10.495841"
       fy="10.498917"
       fx="10.5"
       cy="10.498917"
       cx="10.5"
       gradientTransform="matrix(2.147084,4.691471e-7,-4.692465e-7,2.147071,1.426465,0.43105)"
       gradientUnits="userSpaceOnUse"
       id="radialGradient5981"
       xlink:href="#linearGradient2276"
       inkscape:collect="always" />
    <linearGradient
       id="linearGradient2276">
      <stop
         id="stop2278"
         offset="0"
         style="stop-color:#f57900;stop-opacity:1;" />
      <stop
         id="stop2280"
         offset="1"
         style="stop-color:#fcaf3e;stop-opacity:1;" />
    </linearGradient>
    <linearGradient
       y2="5.6588697"
       x2="9.814188"
       y1="7.1350532"
       x1="7.2744212"
       gradientTransform="matrix(2.742212,0,0,2.838566,-4.403543,-5.255819)"
       gradientUnits="userSpaceOnUse"
       id="linearGradient5978"
       xlink:href="#linearGradient2276"
       inkscape:collect="always" />
    <linearGradient
       y2="51.027462"
       x2="26.1399"
       y1="20.92672"
       x1="25.593685"
       gradientUnits="userSpaceOnUse"
       id="linearGradient5971"
       xlink:href="#linearGradient2789"
       inkscape:collect="always" />
    <linearGradient
       id="linearGradient2789"
       inkscape:collect="always">
      <stop
         id="stop2791"
         offset="0"
         style="stop-color:white;stop-opacity:1;" />
      <stop
         id="stop2793"
         offset="1"
         style="stop-color:white;stop-opacity:0;" />
    </linearGradient>
    <linearGradient
       y2="4.3226557"
       x2="21.347506"
       y1="45.17091"
       x1="21.347506"
       gradientUnits="userSpaceOnUse"
       id="linearGradient5969"
       xlink:href="#linearGradient2789"
       inkscape:collect="always" />
  </defs>
  <sodipodi:namedview
     id="base"
     pagecolor="#ffffff"
     bordercolor="#666666"
     borderopacity="1.0"
     inkscape:pageopacity="0.0"
     inkscape:pageshadow="2"
     inkscape:zoom="7"
     inkscape:cx="5.7857143"
     inkscape:cy="24"
     inkscape:current-layer="layer1"
     showgrid="true"
     inkscape:grid-bbox="true"
     inkscape:document-units="px"
     inkscape:window-width="1366"
     inkscape:window-height="710"
     inkscape:window-x="0"
     inkscape:window-y="26"
     inkscape:window-maximized="1" />
  <metadata
     id="metadata7615">
    <rdf:RDF>
      <cc:Work
         rdf:about="">
        <dc:format>image/svg+xml</dc:format>
        <dc:type
           rdf:resource="http://purl.org/dc/dcmitype/StillImage" />
        <dc:title></dc:title>
      </cc:Work>
    </rdf:RDF>
  </metadata>
  <g
     id="layer1"
     inkscape:label="Layer 1"
     inkscape:groupmode="layer"
     transform="translate(0,-16)">
    <g
       id="g3154"
       transform="matrix(0.6707498,0,0,0.6707498,-2.8254132,16.05026)">
      <g
         style="opacity:0.15"
         transform="matrix(1.0755539,0,0,0.8526861,1.1294461,6.4817533)"
         id="g3580">
        <rect
           style="fill:url(#radialGradient3177);fill-opacity:1;stroke:none"
           id="rect3582"
           width="5"
           height="6"
           x="33"
           y="41" />
        <rect
           style="fill:url(#radialGradient3179);fill-opacity:1;stroke:none"
           id="rect3584"
           width="5"
           height="6"
           x="-6"
           y="-47"
           transform="scale(-1,-1)" />
        <rect
           style="fill:url(#linearGradient3181);fill-opacity:1;stroke:none"
           id="rect3586"
           width="27"
           height="6"
           x="6"
           y="41" />
      </g>
      <rect
         ry="2.5190678"
         rx="2.6030371"
         y="1.4999411"
         x="6.5004954"
         height="42.999996"
         width="31"
         id="rect3588"
         style="fill:#eeeeec;fill-opacity:1;stroke:url(#linearGradient3183);stroke-width:1.00000012;stroke-linecap:round;stroke-linejoin:round;stroke-miterlimit:4;stroke-opacity:1;stroke-dasharray:none;stroke-dashoffset:0" />
      <path
         transform="translate(2.0004952,0.9999411)"
         d="m 8,11 c -1.0825794,0 -1.96875,0.886171 -1.96875,1.96875 l 0,4.0625 C 6.03125,18.113829 6.9174206,19 8,19 l 23.03125,0 C 32.113829,19 32.999999,18.113829 33,17.03125 l 0,-4.0625 C 33,11.88617 32.113829,11 31.03125,11 L 8,11 z"
         id="path3590"
         style="opacity:0.07000002;fill:#000000;fill-opacity:1;stroke:none"
         inkscape:original="M 8 11.46875 C 7.169 11.46875 6.5 12.13775 6.5 12.96875 L 6.5 17.03125 C 6.5 17.86225 7.169 18.53125 8 18.53125 L 31.03125 18.53125 C 31.86225 18.53125 32.531249 17.86225 32.53125 17.03125 L 32.53125 12.96875 C 32.53125 12.13775 31.862249 11.46875 31.03125 11.46875 L 8 11.46875 z "
         inkscape:radius="0.46875"
         sodipodi:type="inkscape:offset" />
      <rect
         ry="1.4847569"
         rx="1.5555313"
         y="11.499942"
         x="8.500495"
         height="6.9999986"
         width="27"
         id="rect3592"
         style="fill:#97bf60;fill-opacity:1;stroke:#709937;stroke-width:1.0000006;stroke-linecap:round;stroke-linejoin:round;stroke-miterlimit:4;stroke-opacity:1;stroke-dasharray:none;stroke-dashoffset:0" />
      <rect
         ry="1.4548507"
         rx="1.505298"
         y="2.5499413"
         x="7.5581784"
         height="40.899998"
         width="28.892317"
         id="rect3594"
         style="fill:none;stroke:#ffffff;stroke-width:1.10000002;stroke-linecap:round;stroke-linejoin:miter;stroke-miterlimit:4;stroke-opacity:1;stroke-dasharray:none;stroke-dashoffset:0" />
      <rect
         ry="0.8125"
         rx="0.7673611"
         y="37.999943"
         x="16.000496"
         height="2"
         width="17"
         id="rect3596"
         style="opacity:0.4;fill:#000000;fill-opacity:1;stroke:none" />
      <rect
         ry="0.625"
         rx="0.59027779"
         y="5.9999413"
         x="16.000496"
         height="2"
         width="17"
         id="rect3616"
         style="opacity:0.4;fill:#000000;fill-opacity:1;stroke:none" />
      <rect
         ry="0.5625"
         rx="0.53125"
         y="13.999941"
         x="16.000496"
         height="2"
         width="17"
         id="rect3618"
         style="opacity:0.4;fill:#000000;fill-opacity:1;stroke:none" />
      <rect
         rx="0.75"
         ry="0.75"
         y="21.999941"
         x="16.000496"
         height="2"
         width="17"
         id="rect3620"
         style="opacity:0.4;fill:#000000;fill-opacity:1;stroke:none" />
      <path
         transform="matrix(1.041721,0,0,1,1.6862841,-5.89e-5)"
         d="m 8,12.5 c -0.2854599,0 -0.46875,0.18329 -0.46875,0.46875 l 0,4.0625 C 7.53125,17.31671 7.7145401,17.5 8,17.5 l 23.03125,0 C 31.31671,17.5 31.5,17.316711 31.5,17.03125 l 0,-4.0625 C 31.5,12.683291 31.316708,12.5 31.03125,12.5 L 8,12.5 z"
         id="path3622"
         style="opacity:0.4;fill:none;stroke:#ffffff;stroke-width:0.97977096;stroke-linecap:round;stroke-linejoin:round;stroke-miterlimit:4;stroke-opacity:1;stroke-dasharray:none;stroke-dashoffset:0"
         inkscape:original="M 8 11.46875 C 7.169 11.46875 6.5 12.13775 6.5 12.96875 L 6.5 17.03125 C 6.5 17.86225 7.169 18.53125 8 18.53125 L 31.03125 18.53125 C 31.86225 18.53125 32.531249 17.86225 32.53125 17.03125 L 32.53125 12.96875 C 32.53125 12.13775 31.862249 11.46875 31.03125 11.46875 L 8 11.46875 z "
         inkscape:radius="-1.016466"
         sodipodi:type="inkscape:offset" />
      <rect
         ry="0.86178637"
         rx="0.86178637"
         y="37.499943"
         x="10.500496"
         height="3"
         width="3"
         id="rect3626"
         style="opacity:0.3;fill:#888a85;fill-opacity:1;stroke:#2e3436;stroke-width:1;stroke-linecap:round;stroke-linejoin:miter;stroke-miterlimit:4;stroke-opacity:1;stroke-dasharray:none;stroke-dashoffset:0" />
      <rect
         ry="0.86178637"
         rx="0.86178637"
         y="21.499941"
         x="10.500496"
         height="3"
         width="3"
         id="rect3628"
         style="opacity:0.3;fill:#888a85;fill-opacity:1;stroke:#2e3436;stroke-width:1;stroke-linecap:round;stroke-linejoin:miter;stroke-miterlimit:4;stroke-opacity:1;stroke-dasharray:none;stroke-dashoffset:0" />
      <rect
         ry="0.86178637"
         rx="0.86178637"
         y="13.499941"
         x="10.500496"
         height="3"
         width="3"
         id="rect3630"
         style="opacity:0.3;fill:#888a85;fill-opacity:1;stroke:#2e3436;stroke-width:1;stroke-linecap:round;stroke-linejoin:miter;stroke-miterlimit:4;stroke-opacity:1;stroke-dasharray:none;stroke-dashoffset:0" />
      <rect
         ry="0.86178637"
         rx="0.86178637"
         y="5.4999413"
         x="10.500496"
         height="3"
         width="3"
         id="rect3632"
         style="opacity:0.3;fill:#888a85;fill-opacity:1;stroke:#2e3436;stroke-width:1;stroke-linecap:round;stroke-linejoin:miter;stroke-miterlimit:4;stroke-opacity:1;stroke-dasharray:none;stroke-dashoffset:0" />
      <g
         transform="translate(2.0004952,-8.0000586)"
         id="g3848">
        <g
           style="display:inline"
           id="g3600"
           transform="translate(-2.348519,2.049312)" />
        <rect
           style="opacity:0.3;fill:#888a85;fill-opacity:1;stroke:#2e3436;stroke-width:1;stroke-linecap:round;stroke-linejoin:miter;stroke-miterlimit:4;stroke-opacity:1;stroke-dasharray:none;stroke-dashoffset:0"
           id="rect3624"
           width="3"
           height="3"
           x="8.5"
           y="37.5"
           rx="0.86178637"
           ry="0.86178637" />
        <rect
           style="opacity:0.4;fill:url(#linearGradient3185);fill-opacity:1;stroke:none"
           id="rect3634"
           width="15"
           height="2"
           x="14"
           y="38"
           rx="0.67708331"
           ry="0.8125" />
      </g>
    </g>
    <g
       inkscape:label="Layer 1"
       id="layer1-2"
       transform="matrix(0.48958317,0,0,0.48958317,8.6928528,24.7028)">
      <g
         transform="translate(-2.0635582e-6,1.1375e-6)"
         id="g6139">
        <path
           sodipodi:type="arc"
           style="opacity:0.4;fill:url(#radialGradient6175);fill-opacity:1;fill-rule:nonzero;stroke:none;stroke-width:1;marker:none;visibility:visible;display:inline;overflow:visible"
           id="path6156"
           sodipodi:cx="16"
           sodipodi:cy="27.875"
           sodipodi:rx="12.125"
           sodipodi:ry="3.5"
           d="m 28.125,27.875 c 0,1.932997 -5.428547,3.5 -12.125,3.5 -6.6964526,0 -12.125,-1.567003 -12.125,-3.5 0,-1.932997 5.4285474,-3.5 12.125,-3.5 6.696453,0 12.125,1.567003 12.125,3.5 z"
           transform="matrix(1.7319588,0,0,1.9999999,-3.7113407,-15.749998)" />
        <path
           sodipodi:type="arc"
           style="fill:url(#radialGradient6177);fill-opacity:1;stroke:#babdb6;stroke-width:0.38685802;stroke-linecap:round;stroke-linejoin:round;stroke-miterlimit:4;stroke-opacity:1;stroke-dasharray:none"
           id="path6158"
           sodipodi:cx="8.6624146"
           sodipodi:cy="10.078017"
           sodipodi:rx="6.4298334"
           sodipodi:ry="7.0996075"
           d="m 15.092248,10.078017 c 0,3.921005 -2.878735,7.099608 -6.4298334,7.099608 -3.551099,0 -6.4298335,-3.178603 -6.4298335,-7.099608 0,-3.9210047 2.8787345,-7.0996072 6.4298335,-7.0996072 3.5510984,0 6.4298334,3.1786025 6.4298334,7.0996072 z"
           transform="matrix(2.7107753,0,0,2.464925,0.447975,-1.8415564)" />
        <path
           style="opacity:0.11855672;fill:#000000;fill-opacity:1;stroke:none"
           d="M 23.96875,5.3393085 C 14.464374,5.3393085 6.75,13.021982 6.75,22.52681 c 0,0.385641 0.037527,0.776928 0.0625,1.15625 0.6004186,-8.960167 8.044364,-16.0312515 17.15625,-16.0312515 9.111887,0 16.555831,7.0710855 17.15625,16.0312515 0.02497,-0.379322 0.0625,-0.770609 0.0625,-1.15625 0,-9.504827 -7.714373,-17.1875016 -17.21875,-17.1875015 z"
           id="path6160"
           inkscape:connector-curvature="0" />
        <path
           style="fill:url(#radialGradient5981);fill-opacity:1;stroke:#ce5c00;stroke-width:1.00000107;stroke-linecap:round;stroke-linejoin:round;stroke-miterlimit:4;stroke-opacity:1;stroke-dasharray:none"
           d="M 23.165684,1.5068059 C 11.702548,1.9429331 2.5000026,11.407295 2.5000026,22.975303 c 0,11.845639 9.6239034,21.468496 21.4708374,21.468496 11.846932,0 21.470838,-9.622853 21.470838,-21.468496 0,-11.845642 -9.623906,-21.4684972 -21.470838,-21.4684971 -0.277663,0 -0.530041,-0.010467 -0.805156,0 z m -0.0671,4.2936992 c 0.292776,-0.014842 0.575808,0 0.872253,0 9.486289,0 17.17667,7.6979549 17.17667,17.1747979 0,9.476842 -7.690381,17.174796 -17.17667,17.174796 -9.48629,0 -17.1766697,-7.697954 -17.1766697,-17.174796 0,-9.180693 7.2283817,-16.7146978 16.3044167,-17.1747979 z"
           id="path6162"
           inkscape:connector-curvature="0" />
        <path
           style="fill:url(#linearGradient5978);fill-opacity:1;fill-rule:evenodd;stroke:#ce5c00;stroke-width:1;stroke-linecap:butt;stroke-linejoin:miter;stroke-miterlimit:4;stroke-opacity:1;stroke-dasharray:none"
           d="m 24.493279,24.492024 0.0051,-15.9492726 C 19.056113,8.7363025 15.099477,10.659248 11.948663,14.987783 l 12.544616,9.504241 z"
           id="path6164"
           sodipodi:nodetypes="cccc"
           inkscape:connector-curvature="0" />
        <path
           sodipodi:type="arc"
           style="opacity:0.51030926;fill:none;stroke:url(#linearGradient5971);stroke-width:0.97099239;stroke-linecap:round;stroke-linejoin:round;stroke-miterlimit:4;stroke-opacity:1;stroke-dasharray:none;stroke-dashoffset:0;marker:none;visibility:visible;display:inline;overflow:visible"
           id="path6166"
           sodipodi:cx="23.5"
           sodipodi:cy="24.75"
           sodipodi:rx="19.875"
           sodipodi:ry="19.875"
           d="m 43.375,24.75 c 0,10.976659 -8.898341,19.875 -19.875,19.875 -10.976659,0 -19.875,-8.898341 -19.875,-19.875 0,-10.976659 8.898341,-19.875 19.875,-19.875 10.976659,0 19.875,8.898341 19.875,19.875 z"
           transform="matrix(1.029875,0,0,1.029875,-0.233294,-2.458137)" />
        <path
           style="fill:#555753;fill-opacity:1;fill-rule:evenodd;stroke:#2e3436;stroke-width:1;stroke-linecap:round;stroke-linejoin:round;stroke-miterlimit:4;stroke-opacity:1;stroke-dasharray:none"
           d="m 11.623626,14.879722 11.581237,11.932619 12.35676,-1.375 L 24.3617,23.762517 11.623626,14.879722 z"
           id="path6168"
           sodipodi:nodetypes="ccccc"
           inkscape:connector-curvature="0" />
        <path
           sodipodi:type="arc"
           style="fill:#555753;fill-opacity:1;fill-rule:evenodd;stroke:#2e3436;stroke-width:1;stroke-linecap:round;stroke-linejoin:round;stroke-miterlimit:4;stroke-opacity:1;stroke-dasharray:none;stroke-dashoffset:0;marker:none;visibility:visible;display:inline;overflow:visible"
           id="path6170"
           sodipodi:cx="23.5625"
           sodipodi:cy="25.0625"
           sodipodi:rx="2.6875"
           sodipodi:ry="2.6875"
           d="m 26.25,25.0625 c 0,1.484265 -1.203235,2.6875 -2.6875,2.6875 -1.484265,0 -2.6875,-1.203235 -2.6875,-2.6875 0,-1.484265 1.203235,-2.6875 2.6875,-2.6875 1.484265,0 2.6875,1.203235 2.6875,2.6875 z" />
        <path
           sodipodi:type="arc"
           style="opacity:0.47422683;fill:#ffffff;fill-opacity:1;fill-rule:evenodd;stroke:none;stroke-width:1;marker:none;visibility:visible;display:inline;overflow:visible"
           id="path6172"
           sodipodi:cx="22.25"
           sodipodi:cy="23.65625"
           sodipodi:rx="1.25"
           sodipodi:ry="1.25"
           d="m 23.5,23.65625 c 0,0.690356 -0.559644,1.25 -1.25,1.25 -0.690356,0 -1.25,-0.559644 -1.25,-1.25 0,-0.690356 0.559644,-1.25 1.25,-1.25 0.690356,0 1.25,0.559644 1.25,1.25 z"
           transform="matrix(-0.6,0,0,-0.6,36.49775,38.66472)" />
        <path
           transform="matrix(0.9159027,0,0,0.9159027,2.4450561,0.3626785)"
           d="m 43.375,24.75 c 0,10.976659 -8.898341,19.875 -19.875,19.875 -10.976659,0 -19.875,-8.898341 -19.875,-19.875 0,-10.976659 8.898341,-19.875 19.875,-19.875 10.976659,0 19.875,8.898341 19.875,19.875 z"
           sodipodi:ry="19.875"
           sodipodi:rx="19.875"
           sodipodi:cy="24.75"
           sodipodi:cx="23.5"
           id="path5967"
           style="opacity:0.51030926;fill:none;stroke:url(#linearGradient5969);stroke-width:1.09181988;stroke-linecap:round;stroke-linejoin:round;stroke-miterlimit:4;stroke-opacity:1;stroke-dasharray:none;stroke-dashoffset:0;marker:none;visibility:visible;display:inline;overflow:visible"
           sodipodi:type="arc" />
      </g>
    </g>
  </g>
</svg>
