<?xml version="1.0" encoding="UTF-8" standalone="no"?>
<!-- Created with Inkscape (http://www.inkscape.org/) -->

<svg
   xmlns:dc="http://purl.org/dc/elements/1.1/"
   xmlns:cc="http://creativecommons.org/ns#"
   xmlns:rdf="http://www.w3.org/1999/02/22-rdf-syntax-ns#"
   xmlns:svg="http://www.w3.org/2000/svg"
   xmlns="http://www.w3.org/2000/svg"
   xmlns:xlink="http://www.w3.org/1999/xlink"
   xmlns:sodipodi="http://sodipodi.sourceforge.net/DTD/sodipodi-0.dtd"
   xmlns:inkscape="http://www.inkscape.org/namespaces/inkscape"
   width="48px"
   height="48px"
   id="svg8025"
   sodipodi:version="0.32"
   inkscape:version="0.48.1 r9760"
   sodipodi:docname="openApplication.svg"
   inkscape:output_extension="org.inkscape.output.svg.inkscape"
   version="1.1"
   inkscape:export-filename="/home/wiliam/devel/guanandy/Images/openApplication.png"
   inkscape:export-xdpi="90"
   inkscape:export-ydpi="90">
  <defs
     id="defs8027">
    <linearGradient
       id="linearGradient8019">
      <stop
         style="stop-color:#ffffff;stop-opacity:1"
         offset="0"
         id="stop8021" />
      <stop
         style="stop-color:#d3d7cf;stop-opacity:1"
         offset="1"
         id="stop8023" />
    </linearGradient>
    <linearGradient
       id="linearGradient8013">
      <stop
         style="stop-color:#ffffff;stop-opacity:1"
         offset="0"
         id="stop8015" />
      <stop
         style="stop-color:#d3d7cf;stop-opacity:1"
         offset="1"
         id="stop8017" />
    </linearGradient>
    <linearGradient
       collect="always"
       xlink:href="#linearGradient8013"
       id="linearGradient5538"
       gradientUnits="userSpaceOnUse"
       gradientTransform="matrix(0.2223829,0,0,0.2660568,6.2867498,15.087765)"
       x1="32.892288"
       y1="8.0590115"
       x2="36.358372"
       y2="5.4565363" />
    <linearGradient
       id="linearGradient13905"
       collect="always">
      <stop
         id="stop13907"
         offset="0"
         style="stop-color:#ffffff;stop-opacity:1" />
      <stop
         id="stop13909"
         offset="1"
         style="stop-color:#d3d7cf;stop-opacity:1" />
    </linearGradient>
    <linearGradient
       inkscape:collect="always"
       id="linearGradient4788-7">
      <stop
         style="stop-color:#ffffff;stop-opacity:1;"
         offset="0"
         id="stop4790-8" />
      <stop
         style="stop-color:#ffffff;stop-opacity:0;"
         offset="1"
         id="stop4792-6" />
    </linearGradient>
    <radialGradient
       inkscape:collect="always"
       xlink:href="#linearGradient4788-7"
       id="radialGradient13328"
       gradientUnits="userSpaceOnUse"
       gradientTransform="matrix(-2.1743122,1.086528e-6,0.1555742,-1.7619693,712.87107,115.19387)"
       cx="326.0206"
       cy="58"
       fx="326.0206"
       fy="58"
       r="12.5" />
    <linearGradient
       inkscape:collect="always"
       id="linearGradient5687">
      <stop
         style="stop-color:#ffffff;stop-opacity:1;"
         offset="0"
         id="stop5689" />
      <stop
         style="stop-color:#ffffff;stop-opacity:0;"
         offset="1"
         id="stop5691" />
    </linearGradient>
    <linearGradient
       inkscape:collect="always"
       xlink:href="#linearGradient5687"
       id="linearGradient13331"
       gradientUnits="userSpaceOnUse"
       gradientTransform="matrix(0.1730768,0,0,0.2016128,-1.615383,-1.516133)"
       x1="88"
       y1="44.5"
       x2="178"
       y2="202.5" />
    <linearGradient
       inkscape:collect="always"
       id="linearGradient4788">
      <stop
         style="stop-color:#ffffff;stop-opacity:1;"
         offset="0"
         id="stop4790" />
      <stop
         style="stop-color:#ffffff;stop-opacity:0;"
         offset="1"
         id="stop4792" />
    </linearGradient>
    <radialGradient
       inkscape:collect="always"
       xlink:href="#linearGradient4788"
       id="radialGradient13334"
       gradientUnits="userSpaceOnUse"
       gradientTransform="matrix(5.7967413,6.3813386e-8,-1.425586e-8,1.5799301,-1867.6624,-78.599519)"
       cx="327.5"
       cy="58"
       fx="327.5"
       fy="58"
       r="12.5" />
    <linearGradient
       id="linearGradient2699">
      <stop
         style="stop-color:#97bf60;stop-opacity:1"
         offset="0"
         id="stop2701" />
      <stop
         style="stop-color:#51751e;stop-opacity:1"
         offset="1"
         id="stop2703" />
    </linearGradient>
    <radialGradient
       inkscape:collect="always"
       xlink:href="#linearGradient2699"
       id="radialGradient13337"
       gradientUnits="userSpaceOnUse"
       gradientTransform="matrix(2.2642324,-1.5910558e-5,8.4408674e-6,1.2012203,-30.355557,-5.72857)"
       cx="24.006104"
       cy="37.921711"
       fx="24.006104"
       fy="37.921711"
       r="19.00016" />
    <linearGradient
       id="linearGradient259-942">
      <stop
         id="stop3802"
         style="stop-color:#eeeeec;stop-opacity:1"
         offset="0" />
      <stop
         id="stop3804"
         style="stop-color:#d3d7cf;stop-opacity:1"
         offset="1" />
    </linearGradient>
    <linearGradient
       collect="always"
       xlink:href="#linearGradient259-942"
       id="linearGradient5552"
       gradientUnits="userSpaceOnUse"
       gradientTransform="matrix(0.4841312,0,0,0.3122355,-56.810748,-45.579105)"
       x1="109.10701"
       y1="110.72625"
       x2="26.546656"
       y2="17.641199" />
    <radialGradient
       inkscape:collect="always"
       xlink:href="#linearGradient5060"
       id="radialGradient13319"
       gradientUnits="userSpaceOnUse"
       gradientTransform="matrix(2.891661e-2,0,0,1.6470585e-2,26.973101,32.96113)"
       cx="605.71429"
       cy="486.64789"
       fx="605.71429"
       fy="486.64789"
       r="117.14286" />
    <linearGradient
       id="linearGradient5060">
      <stop
         id="stop5062"
         style="stop-color:#000000;stop-opacity:1"
         offset="0" />
      <stop
         id="stop5064"
         style="stop-color:#000000;stop-opacity:0"
         offset="1" />
    </linearGradient>
    <radialGradient
       inkscape:collect="always"
       xlink:href="#linearGradient5060"
       id="radialGradient13322"
       gradientUnits="userSpaceOnUse"
       gradientTransform="matrix(-2.8916604e-2,0,0,1.6470585e-2,21.026894,32.96113)"
       cx="605.71429"
       cy="486.64789"
       fx="605.71429"
       fy="486.64789"
       r="117.14286" />
    <linearGradient
       id="linearGradient5048">
      <stop
         id="stop5050"
         style="stop-color:#000000;stop-opacity:0"
         offset="0" />
      <stop
         id="stop5056"
         style="stop-color:#000000;stop-opacity:1"
         offset="0.5" />
      <stop
         id="stop5052"
         style="stop-color:#000000;stop-opacity:0"
         offset="1" />
    </linearGradient>
    <linearGradient
       inkscape:collect="always"
       xlink:href="#linearGradient5048"
       id="linearGradient13325"
       gradientUnits="userSpaceOnUse"
       gradientTransform="matrix(8.4497041e-2,0,0,1.6470585e-2,-6.5396456,32.961095)"
       x1="302.85715"
       y1="366.64789"
       x2="302.85715"
       y2="609.50507" />
    <linearGradient
       id="linearGradient5048-1">
      <stop
         style="stop-color:black;stop-opacity:0;"
         id="stop5050-7"
         offset="0" />
      <stop
         style="stop-color:black;stop-opacity:1;"
         id="stop5056-7"
         offset="0.5" />
      <stop
         style="stop-color:black;stop-opacity:0;"
         id="stop5052-1"
         offset="1" />
    </linearGradient>
    <linearGradient
       id="linearGradient2206">
      <stop
         style="stop-color:#bababa;stop-opacity:1"
         id="stop2208"
         offset="0.0000000" />
      <stop
         style="stop-color:#eeeeec;stop-opacity:1"
         id="stop2210"
         offset="1.0000000" />
    </linearGradient>
    <linearGradient
       id="linearGradient2214">
      <stop
         style="stop-color:#9c9c9c;stop-opacity:1"
         id="stop2216"
         offset="0.0000000" />
      <stop
         style="stop-color:#808080;stop-opacity:1"
         id="stop2218"
         offset="1.0000000" />
    </linearGradient>
    <linearGradient
       id="linearGradient9936">
      <stop
         id="stop9938"
         offset="0"
         style="stop-color:#333333;stop-opacity:1;" />
      <stop
         id="stop9940"
         offset="1"
         style="stop-color:#575757;stop-opacity:1;" />
    </linearGradient>
    <linearGradient
       id="linearGradient2238"
       inkscape:collect="always">
      <stop
         style="stop-color:#ffffff;stop-opacity:1;"
         id="stop2240"
         offset="0" />
      <stop
         style="stop-color:#ffffff;stop-opacity:0;"
         id="stop2242"
         offset="1" />
    </linearGradient>
    <linearGradient
       inkscape:collect="always"
       xlink:href="#linearGradient2238"
       id="linearGradient3219"
       gradientUnits="userSpaceOnUse"
       gradientTransform="matrix(0.9528184,0,0,0.9728139,2.2318254,50.857548)"
       x1="25.286486"
       y1="-1.1464647"
       x2="25.122681"
       y2="48.519287" />
    <linearGradient
       y2="459.92340"
       x2="586.06391"
       y1="417.18036"
       x1="564.74364"
       gradientTransform="matrix(0.300166,2.175073e-2,-2.014165e-2,0.277960,55.85690,-27.13629)"
       gradientUnits="userSpaceOnUse"
       id="linearGradient2155"
       xlink:href="#linearGradient4215"
       inkscape:collect="always" />
    <linearGradient
       y2="396.43265"
       x2="601.19987"
       y1="342.22995"
       x1="571.12997"
       gradientTransform="matrix(0.312565,2.264923e-2,-1.934263e-2,0.266933,55.85690,-27.13629)"
       gradientUnits="userSpaceOnUse"
       id="linearGradient2153"
       xlink:href="#linearGradient4215"
       inkscape:collect="always" />
    <linearGradient
       y2="399.38105"
       x2="544.86009"
       y1="327.76362"
       x1="509.06769"
       gradientTransform="matrix(0.280834,2.034989e-2,-2.152815e-2,0.297094,55.85690,-27.13629)"
       gradientUnits="userSpaceOnUse"
       id="linearGradient2151"
       xlink:href="#linearGradient4215"
       inkscape:collect="always" />
    <linearGradient
       y2="345.03880"
       x2="571.79692"
       y1="280.02427"
       x1="535.78689"
       gradientTransform="matrix(0.290003,2.101439e-2,-2.084741e-2,0.287700,55.85690,-27.13629)"
       gradientUnits="userSpaceOnUse"
       id="linearGradient2148"
       xlink:href="#linearGradient4215"
       inkscape:collect="always" />
    <linearGradient
       y2="712.01860"
       x2="605.99946"
       y1="721.56359"
       x1="623.41440"
       gradientTransform="matrix(0.999243,7.240753e-2,-7.039472e-2,0.971465,-350.6462,-633.5339)"
       gradientUnits="userSpaceOnUse"
       id="linearGradient2146"
       xlink:href="#linearGradient4215"
       inkscape:collect="always" />
    <linearGradient
       y2="699.02725"
       x2="604.71871"
       y1="706.90464"
       x1="622.78897"
       gradientTransform="matrix(1.015426,7.358018e-2,-6.927283e-2,0.955983,-350.6462,-633.5339)"
       gradientUnits="userSpaceOnUse"
       id="linearGradient2144"
       xlink:href="#linearGradient4215"
       inkscape:collect="always" />
    <linearGradient
       y2="743.14524"
       x2="610.28476"
       y1="764.89803"
       x1="648.31500"
       gradientTransform="matrix(1.021754,7.403874e-2,-6.884375e-2,0.950062,-350.6462,-633.5339)"
       gradientUnits="userSpaceOnUse"
       id="linearGradient2142"
       xlink:href="#linearGradient4021"
       inkscape:collect="always" />
    <linearGradient
       y2="702.53950"
       x2="635.25272"
       y1="721.82962"
       x1="669.54511"
       gradientTransform="matrix(1.003601,7.272338e-2,-7.008894e-2,0.967246,-350.6462,-633.5339)"
       gradientUnits="userSpaceOnUse"
       id="linearGradient2140"
       xlink:href="#linearGradient4021"
       inkscape:collect="always" />
    <linearGradient
       id="linearGradient4021">
      <stop
         style="stop-color:#000000;stop-opacity:1.0000000;"
         offset="0.0000000"
         id="stop4022" />
      <stop
         style="stop-color:#000000;stop-opacity:0.0000000;"
         offset="1.0000000"
         id="stop4023" />
    </linearGradient>
    <linearGradient
       id="linearGradient4215">
      <stop
         style="stop-color:#ffffff;stop-opacity:1.0000000;"
         offset="0.0000000"
         id="stop4216" />
      <stop
         style="stop-color:#ffffff;stop-opacity:0.0000000;"
         offset="1.0000000"
         id="stop4217" />
    </linearGradient>
    <linearGradient
       y2="37.406403"
       x2="36.621933"
       y1="15.617307"
       x1="12.973133"
       gradientUnits="userSpaceOnUse"
       id="linearGradient2154"
       xlink:href="#linearGradient2108"
       inkscape:collect="always" />
    <linearGradient
       y2="49.932362"
       x2="41.473427"
       y1="67.985504"
       x1="62.456375"
       gradientUnits="userSpaceOnUse"
       id="linearGradient2152"
       xlink:href="#linearGradient2098"
       inkscape:collect="always" />
    <linearGradient
       y2="59.850849"
       x2="61.018070"
       y1="33.990944"
       x1="33.155548"
       gradientUnits="userSpaceOnUse"
       id="linearGradient2150"
       xlink:href="#linearGradient2088"
       inkscape:collect="always" />
    <linearGradient
       y2="37.406403"
       x2="36.621933"
       y1="15.617307"
       x1="12.973133"
       gradientUnits="userSpaceOnUse"
       id="linearGradient2125"
       xlink:href="#linearGradient2108"
       inkscape:collect="always" />
    <linearGradient
       y2="49.932362"
       x2="41.473427"
       y1="67.985504"
       x1="62.456375"
       gradientUnits="userSpaceOnUse"
       id="linearGradient2123"
       xlink:href="#linearGradient2098"
       inkscape:collect="always" />
    <linearGradient
       y2="59.850849"
       x2="61.018070"
       y1="33.990944"
       x1="33.155548"
       gradientUnits="userSpaceOnUse"
       id="linearGradient2121"
       xlink:href="#linearGradient2088"
       inkscape:collect="always" />
    <linearGradient
       id="linearGradient2088"
       inkscape:collect="always">
      <stop
         id="stop2090"
         offset="0"
         style="stop-color:#dadada;stop-opacity:1.0000000" />
      <stop
         id="stop2092"
         offset="1"
         style="stop-color:#c7c7c7;stop-opacity:1.0000000" />
    </linearGradient>
    <linearGradient
       id="linearGradient2098"
       inkscape:collect="always">
      <stop
         id="stop2100"
         offset="0"
         style="stop-color:#646464;stop-opacity:1.0000000" />
      <stop
         id="stop2102"
         offset="1"
         style="stop-color:#858585;stop-opacity:0;" />
    </linearGradient>
    <linearGradient
       id="linearGradient2108"
       inkscape:collect="always">
      <stop
         id="stop2110"
         offset="0"
         style="stop-color:#ffffff;stop-opacity:1;" />
      <stop
         id="stop2112"
         offset="1"
         style="stop-color:#ffffff;stop-opacity:0;" />
    </linearGradient>
    <linearGradient
       inkscape:collect="always"
       xlink:href="#linearGradient5048"
       id="linearGradient3118"
       gradientUnits="userSpaceOnUse"
       gradientTransform="matrix(0.08449704,0,0,0.01647059,-6.5396456,32.961095)"
       x1="302.85715"
       y1="366.64789"
       x2="302.85715"
       y2="609.50507" />
    <radialGradient
       inkscape:collect="always"
       xlink:href="#linearGradient5060"
       id="radialGradient3120"
       gradientUnits="userSpaceOnUse"
       gradientTransform="matrix(-0.0289166,0,0,0.01647059,21.026894,32.96113)"
       cx="605.71429"
       cy="486.64789"
       fx="605.71429"
       fy="486.64789"
       r="117.14286" />
    <radialGradient
       inkscape:collect="always"
       xlink:href="#linearGradient5060"
       id="radialGradient3122"
       gradientUnits="userSpaceOnUse"
       gradientTransform="matrix(0.02891661,0,0,0.01647059,26.973101,32.96113)"
       cx="605.71429"
       cy="486.64789"
       fx="605.71429"
       fy="486.64789"
       r="117.14286" />
    <linearGradient
       inkscape:collect="always"
       xlink:href="#linearGradient259-942"
       id="linearGradient3124"
       gradientUnits="userSpaceOnUse"
       gradientTransform="matrix(0.4841312,0,0,0.3122355,-56.810748,-45.579105)"
       x1="109.10701"
       y1="110.72625"
       x2="26.546656"
       y2="17.641199" />
    <radialGradient
       inkscape:collect="always"
       xlink:href="#linearGradient2699"
       id="radialGradient3126"
       gradientUnits="userSpaceOnUse"
       gradientTransform="matrix(2.2642324,-1.5910558e-5,8.4408674e-6,1.2012203,-30.355557,-5.72857)"
       cx="24.006104"
       cy="37.921711"
       fx="24.006104"
       fy="37.921711"
       r="19.00016" />
    <radialGradient
       inkscape:collect="always"
       xlink:href="#linearGradient4788"
       id="radialGradient3128"
       gradientUnits="userSpaceOnUse"
       gradientTransform="matrix(5.7967413,6.3813386e-8,-1.425586e-8,1.5799301,-1867.6624,-78.599519)"
       cx="327.5"
       cy="58"
       fx="327.5"
       fy="58"
       r="12.5" />
    <linearGradient
       inkscape:collect="always"
       xlink:href="#linearGradient5687"
       id="linearGradient3130"
       gradientUnits="userSpaceOnUse"
       gradientTransform="matrix(0.1730768,0,0,0.2016128,-1.615383,-1.516133)"
       x1="88"
       y1="44.5"
       x2="178"
       y2="202.5" />
    <radialGradient
       inkscape:collect="always"
       xlink:href="#linearGradient4788-7"
       id="radialGradient3132"
       gradientUnits="userSpaceOnUse"
       gradientTransform="matrix(-2.1743122,1.086528e-6,0.1555742,-1.7619693,712.87107,115.19387)"
       cx="326.0206"
       cy="58"
       fx="326.0206"
       fy="58"
       r="12.5" />
    <linearGradient
       inkscape:collect="always"
       xlink:href="#linearGradient2088"
       id="linearGradient3134"
       gradientUnits="userSpaceOnUse"
       x1="33.155548"
       y1="33.990944"
       x2="61.018070"
       y2="59.850849" />
    <linearGradient
       inkscape:collect="always"
       xlink:href="#linearGradient2098"
       id="linearGradient3136"
       gradientUnits="userSpaceOnUse"
       x1="62.456375"
       y1="67.985504"
       x2="41.473427"
       y2="49.932362" />
    <linearGradient
       inkscape:collect="always"
       xlink:href="#linearGradient2108"
       id="linearGradient3138"
       gradientUnits="userSpaceOnUse"
       x1="12.973133"
       y1="15.617307"
       x2="36.621933"
       y2="37.406403" />
    <linearGradient
       inkscape:collect="always"
       xlink:href="#linearGradient2088"
       id="linearGradient3140"
       gradientUnits="userSpaceOnUse"
       x1="33.155548"
       y1="33.990944"
       x2="61.018070"
       y2="59.850849" />
    <linearGradient
       inkscape:collect="always"
       xlink:href="#linearGradient2098"
       id="linearGradient3142"
       gradientUnits="userSpaceOnUse"
       x1="62.456375"
       y1="67.985504"
       x2="41.473427"
       y2="49.932362" />
    <linearGradient
       inkscape:collect="always"
       xlink:href="#linearGradient2108"
       id="linearGradient3144"
       gradientUnits="userSpaceOnUse"
       x1="12.973133"
       y1="15.617307"
       x2="36.621933"
       y2="37.406403" />
  </defs>
  <sodipodi:namedview
     id="base"
     pagecolor="#ffffff"
     bordercolor="#666666"
     borderopacity="1.0"
     inkscape:pageopacity="0.0"
     inkscape:pageshadow="2"
     inkscape:zoom="7"
     inkscape:cx="25.169176"
     inkscape:cy="22.195546"
     inkscape:current-layer="layer1"
     showgrid="true"
     inkscape:grid-bbox="true"
     inkscape:document-units="px"
     inkscape:window-width="1366"
     inkscape:window-height="710"
     inkscape:window-x="0"
     inkscape:window-y="26"
     inkscape:window-maximized="1" />
  <metadata
     id="metadata8030">
    <rdf:RDF>
      <cc:Work
         rdf:about="">
        <dc:format>image/svg+xml</dc:format>
        <dc:type
           rdf:resource="http://purl.org/dc/dcmitype/StillImage" />
        <dc:title></dc:title>
      </cc:Work>
    </rdf:RDF>
  </metadata>
  <g
     id="layer1"
     inkscape:label="Layer 1"
     inkscape:groupmode="layer">
    <g
       id="g17259"
       inkscape:label="shadow"
       transform="translate(-56.869347,48.541976)" />
    <rect
       id="rect2232"
       x="3.6692445"
       y="54.385109"
       width="42.999866"
       height="37.999863"
       ry="3.529537"
       rx="3.5052338"
       style="fill:none;stroke:url(#linearGradient3219);stroke-width:1;stroke-linecap:round;stroke-linejoin:round;stroke-miterlimit:4;stroke-opacity:1;stroke-dasharray:none;stroke-dashoffset:0" />
    <text
       xml:space="preserve"
       style="font-size:40px;font-style:normal;font-weight:normal;fill:#000000;fill-opacity:1;stroke:none;font-family:Bitstream Vera Sans"
       x="-1.466139"
       y="75.836082"
       id="text5527"><tspan
         sodipodi:role="line"
         id="tspan5529"
         x="-1.466139"
         y="75.836082" /></text>
    <g
       id="g3094"
       transform="matrix(1.0420168,0,0,1.0420168,-0.85714281,-1.6638651)">
      <rect
         style="opacity:0.4;fill:url(#linearGradient3118);fill-opacity:1;fill-rule:nonzero;stroke:none;stroke-width:1;marker:none;visibility:visible;display:inline;overflow:visible"
         id="rect2879"
         y="39"
         x="3.5999999"
         height="3.9999995"
         width="40.799999" />
      <path
         style="opacity:0.4;fill:url(#radialGradient3120);fill-opacity:1;fill-rule:nonzero;stroke:none;stroke-width:1;marker:none;visibility:visible;display:inline;overflow:visible"
         id="path2881"
         d="m 3.6,39.000172 c 0,0 0,3.99978 0,3.99978 C 2.1108662,43.007482 0,42.103804 0,40.999804 0,39.895807 1.6617608,39.000174 3.6,39.000172 z"
         inkscape:connector-curvature="0" />
      <path
         style="opacity:0.4;fill:url(#radialGradient3122);fill-opacity:1;fill-rule:nonzero;stroke:none;stroke-width:1;marker:none;visibility:visible;display:inline;overflow:visible"
         id="path2883"
         d="m 44.4,39.000172 c 0,0 0,3.99978 0,3.99978 1.489133,0.0075 3.6,-0.896148 3.6,-2.000148 0,-1.103997 -1.661761,-1.99963 -3.6,-1.999632 z"
         inkscape:connector-curvature="0" />
      <rect
         rx="0.47368893"
         ry="0.51010537"
         width="42.968155"
         height="31.932295"
         x="-45.457737"
         y="-41.50481"
         transform="matrix(-0.9999987,0.00161229,-0.00103254,-0.9999995,0,0)"
         id="rect3580"
         style="fill:url(#linearGradient3124);fill-opacity:1;stroke:#888a85;stroke-width:0.99998146;stroke-linecap:round;stroke-linejoin:miter;stroke-miterlimit:4;stroke-opacity:0.96862745;stroke-dasharray:none" />
      <rect
         style="fill:url(#radialGradient3126);fill-opacity:1;fill-rule:evenodd;stroke:#51751e;stroke-width:0.99965489;stroke-linecap:butt;stroke-linejoin:miter;stroke-miterlimit:4;stroke-opacity:1;stroke-dasharray:none;display:inline;enable-background:new"
         id="rect2716"
         width="37.000343"
         height="26.000345"
         x="5.4998274"
         y="12.499826" />
      <path
         sodipodi:nodetypes="ccccc"
         id="rect4785"
         d="m 33.027045,13.036442 9.027045,0 0,24.927103 -19.8595,0 10.832455,-24.927103 z"
         style="opacity:0.24497992;fill:url(#radialGradient3128);fill-opacity:1;stroke:none;display:inline;enable-background:new"
         inkscape:connector-curvature="0" />
      <rect
         y="13"
         x="6.0000005"
         height="25"
         width="36"
         id="rect3466"
         style="opacity:0.15;fill:url(#linearGradient3130);fill-opacity:1;fill-rule:evenodd;stroke:none;display:inline;enable-background:new" />
      <path
         sodipodi:nodetypes="ccccc"
         id="path10688-3"
         d="m 21.851294,12.999999 7.148706,0 -8.493642,21 L 17,33.764043 l 4.851294,-20.764044 0,0 0,0 z"
         style="opacity:0.24497992;fill:url(#radialGradient3132);fill-opacity:1;stroke:none;display:inline;enable-background:new"
         inkscape:connector-curvature="0" />
      <path
         sodipodi:nodetypes="ccccccccccccc"
         id="text1340"
         d="m 7.7406046,23.027751 0,-3 9.0000024,5 0,2 -9.0000024,5 0,-3 7.0000014,-3 -7.0000014,-3 z m 20.0000034,11 0,2 -10,0 0,-2 10,0"
         style="font-size:18.58501053px;font-style:normal;font-variant:normal;font-weight:bold;font-stretch:normal;text-align:start;line-height:125%;writing-mode:lr-tb;text-anchor:start;fill:#eeeeec;fill-opacity:1;stroke:none;font-family:Bitstream Vera Sans Mono"
         inkscape:connector-curvature="0" />
      <g
         transform="matrix(0.18991187,0,0,0.18991187,18.411403,11.770254)"
         inkscape:label="Layer 1"
         id="layer1-7">
        <g
           id="g2131">
          <path
             inkscape:connector-curvature="0"
             style="fill:#000000;fill-opacity:0.160804;stroke:none"
             d="m 45.241798,14.633184 c -7.5521,0.949591 4.89571,10.888454 -8.34375,16.34375 -15.130821,6.234621 -10.607395,-15.3085 -20.593754,-2.34375 -9.9863608,12.96475 9.697317,3.060267 7.53125,19.28125 -2.166068,16.220983 -18.5471218,1.525431 -12.3125,16.65625 6.234623,15.130819 7.504,-6.861363 20.46875,3.125 12.964754,9.986361 -7.970983,16.833932 8.250004,19 16.22098,2.166068 -2.16207,-9.921628 12.96875,-16.15625 15.13081,-6.234622 10.57614,15.308503 20.5625,2.34375 9.98636,-12.964751 -9.66607,-3.060266 -7.5,-19.28125 2.16606,-16.220983 18.54712,-1.525434 12.3125,-16.65625 -6.23463,-15.130818 -7.504,6.83011 -20.46875,-3.15625 -12.96475,-9.98636 7.93973,-16.833934 -8.28125,-19 -2.02763,-0.270758 -3.51488,-0.291906 -4.59375,-0.15625 z m -0.1875,25.375 c 5.92533,10e-7 10.71875,4.824666 10.71875,10.75 0,5.925333 -4.79342,10.71875 -10.71875,10.71875 -5.92534,10e-7 -10.750004,-4.793416 -10.750004,-10.71875 -10e-7,-5.925335 4.824664,-10.75 10.750004,-10.75 z"
             id="path2127" />
          <g
             transform="translate(-1.951691,0.975845)"
             id="g2116">
            <path
               inkscape:connector-curvature="0"
               style="fill:url(#linearGradient3134);fill-opacity:1;stroke:#858585;stroke-width:2.3874824;stroke-linecap:round;stroke-linejoin:round;stroke-miterlimit:4;stroke-opacity:1"
               d="m 44.590733,9.0945044 c -7.552094,0.9495906 4.895716,10.8884536 -8.34375,16.3437496 -15.130817,6.234621 -10.607391,-15.3085 -20.59375,-2.34375 -9.9863615,12.96475 9.697317,3.060267 7.53125,19.28125 -2.166068,16.220983 -18.5471225,1.525431 -12.3125,16.65625 6.234623,15.130819 7.504,-6.861363 20.46875,3.125 12.96475,9.986361 -7.970983,16.833932 8.25,19 16.220984,2.166068 -2.162069,-9.921628 12.96875,-16.15625 15.130816,-6.234622 10.57614,15.308503 20.5625,2.34375 9.986361,-12.964751 -9.666067,-3.060266 -7.5,-19.28125 2.166068,-16.220983 18.547124,-1.525434 12.3125,-16.65625 -6.234622,-15.130818 -7.503999,6.83011 -20.46875,-3.15625 -12.96475,-9.98636 7.939733,-16.833934 -8.28125,-18.9999996 -2.027623,-0.270758 -3.514879,-0.291906 -4.59375,-0.15625 z m -0.1875,25.3749996 c 5.925335,10e-7 10.71875,4.824666 10.71875,10.75 10e-7,5.925333 -4.793416,10.71875 -10.71875,10.71875 -5.925333,10e-7 -10.75,-4.793416 -10.75,-10.71875 -10e-7,-5.925335 4.824666,-10.75 10.75,-10.75 z"
               id="path1353" />
            <path
               inkscape:connector-curvature="0"
               style="fill:none;stroke:url(#linearGradient3136);stroke-width:2.3874824;stroke-linecap:round;stroke-linejoin:round;stroke-miterlimit:4;stroke-opacity:1"
               d="m 44.590733,9.0945044 c -7.552094,0.9495906 4.895716,10.8884536 -8.34375,16.3437496 -15.130817,6.234621 -10.607391,-15.3085 -20.59375,-2.34375 -9.9863615,12.96475 9.697317,3.060267 7.53125,19.28125 -2.166068,16.220983 -18.5471225,1.525431 -12.3125,16.65625 6.234623,15.130819 7.504,-6.861363 20.46875,3.125 12.96475,9.986361 -7.970983,16.833932 8.25,19 16.220984,2.166068 -2.162069,-9.921628 12.96875,-16.15625 15.130816,-6.234622 10.57614,15.308503 20.5625,2.34375 9.986361,-12.964751 -9.666067,-3.060266 -7.5,-19.28125 2.166068,-16.220983 18.547124,-1.525434 12.3125,-16.65625 -6.234622,-15.130818 -7.503999,6.83011 -20.46875,-3.15625 -12.96475,-9.98636 7.939733,-16.833934 -8.28125,-18.9999996 -2.027623,-0.270758 -3.514879,-0.291906 -4.59375,-0.15625 z m -0.1875,25.3749996 c 5.925335,10e-7 10.71875,4.824666 10.71875,10.75 10e-7,5.925333 -4.793416,10.71875 -10.71875,10.71875 -5.925333,10e-7 -10.75,-4.793416 -10.75,-10.71875 -10e-7,-5.925335 4.824666,-10.75 10.75,-10.75 z"
               id="path2096" />
            <path
               inkscape:connector-curvature="0"
               style="fill:none;stroke:url(#linearGradient3138);stroke-width:2.3874824;stroke-linecap:round;stroke-linejoin:round;stroke-miterlimit:4;stroke-opacity:1"
               d="m 44.590733,9.0945044 c -7.552094,0.9495906 4.895716,10.8884536 -8.34375,16.3437496 -15.130817,6.234621 -10.607391,-15.3085 -20.59375,-2.34375 -9.9863615,12.96475 9.697317,3.060267 7.53125,19.28125 -2.166068,16.220983 -18.5471225,1.525431 -12.3125,16.65625 6.234623,15.130819 7.504,-6.861363 20.46875,3.125 12.96475,9.986361 -7.970983,16.833932 8.25,19 16.220984,2.166068 -2.162069,-9.921628 12.96875,-16.15625 15.130816,-6.234622 10.57614,15.308503 20.5625,2.34375 9.986361,-12.964751 -9.666067,-3.060266 -7.5,-19.28125 2.166068,-16.220983 18.547124,-1.525434 12.3125,-16.65625 -6.234622,-15.130818 -7.503999,6.83011 -20.46875,-3.15625 -12.96475,-9.98636 7.939733,-16.833934 -8.28125,-18.9999996 -2.027623,-0.270758 -3.514879,-0.291906 -4.59375,-0.15625 z m -0.1875,25.3749996 c 5.925335,10e-7 10.71875,4.824666 10.71875,10.75 10e-7,5.925333 -4.793416,10.71875 -10.71875,10.71875 -5.925333,10e-7 -10.75,-4.793416 -10.75,-10.71875 -10e-7,-5.925335 4.824666,-10.75 10.75,-10.75 z"
               id="path2106" />
          </g>
        </g>
        <g
           id="g2138"
           transform="translate(42.29978,37.39135)">
          <path
             inkscape:connector-curvature="0"
             style="fill:#000000;fill-opacity:0.160804;stroke:none"
             d="m 45.241798,14.633184 c -7.5521,0.949591 4.89571,10.888454 -8.34375,16.34375 -15.130821,6.234621 -10.607395,-15.3085 -20.593754,-2.34375 -9.9863608,12.96475 9.697317,3.060267 7.53125,19.28125 -2.166068,16.220983 -18.5471218,1.525431 -12.3125,16.65625 6.234623,15.130819 7.504,-6.861363 20.46875,3.125 12.964754,9.986361 -7.970983,16.833932 8.250004,19 16.22098,2.166068 -2.16207,-9.921628 12.96875,-16.15625 15.13081,-6.234622 10.57614,15.308503 20.5625,2.34375 9.98636,-12.964751 -9.66607,-3.060266 -7.5,-19.28125 2.16606,-16.220983 18.54712,-1.525434 12.3125,-16.65625 -6.23463,-15.130818 -7.504,6.83011 -20.46875,-3.15625 -12.96475,-9.98636 7.93973,-16.833934 -8.28125,-19 -2.02763,-0.270758 -3.51488,-0.291906 -4.59375,-0.15625 z m -0.1875,25.375 c 5.92533,10e-7 10.71875,4.824666 10.71875,10.75 0,5.925333 -4.79342,10.71875 -10.71875,10.71875 -5.92534,10e-7 -10.750004,-4.793416 -10.750004,-10.71875 -10e-7,-5.925335 4.824664,-10.75 10.750004,-10.75 z"
             id="path2140" />
          <g
             transform="translate(-1.951691,0.975845)"
             id="g2142">
            <path
               inkscape:connector-curvature="0"
               style="fill:url(#linearGradient3140);fill-opacity:1;stroke:#858585;stroke-width:2.3874824;stroke-linecap:round;stroke-linejoin:round;stroke-miterlimit:4;stroke-opacity:1"
               d="m 44.590733,9.0945044 c -7.552094,0.9495906 4.895716,10.8884536 -8.34375,16.3437496 -15.130817,6.234621 -10.607391,-15.3085 -20.59375,-2.34375 -9.9863615,12.96475 9.697317,3.060267 7.53125,19.28125 -2.166068,16.220983 -18.5471225,1.525431 -12.3125,16.65625 6.234623,15.130819 7.504,-6.861363 20.46875,3.125 12.96475,9.986361 -7.970983,16.833932 8.25,19 16.220984,2.166068 -2.162069,-9.921628 12.96875,-16.15625 15.130816,-6.234622 10.57614,15.308503 20.5625,2.34375 9.986361,-12.964751 -9.666067,-3.060266 -7.5,-19.28125 2.166068,-16.220983 18.547124,-1.525434 12.3125,-16.65625 -6.234622,-15.130818 -7.503999,6.83011 -20.46875,-3.15625 -12.96475,-9.98636 7.939733,-16.833934 -8.28125,-18.9999996 -2.027623,-0.270758 -3.514879,-0.291906 -4.59375,-0.15625 z m -0.1875,25.3749996 c 5.925335,10e-7 10.71875,4.824666 10.71875,10.75 10e-7,5.925333 -4.793416,10.71875 -10.71875,10.71875 -5.925333,10e-7 -10.75,-4.793416 -10.75,-10.71875 -10e-7,-5.925335 4.824666,-10.75 10.75,-10.75 z"
               id="path2144" />
            <path
               inkscape:connector-curvature="0"
               style="fill:none;stroke:url(#linearGradient3142);stroke-width:2.3874824;stroke-linecap:round;stroke-linejoin:round;stroke-miterlimit:4;stroke-opacity:1"
               d="m 44.590733,9.0945044 c -7.552094,0.9495906 4.895716,10.8884536 -8.34375,16.3437496 -15.130817,6.234621 -10.607391,-15.3085 -20.59375,-2.34375 -9.9863615,12.96475 9.697317,3.060267 7.53125,19.28125 -2.166068,16.220983 -18.5471225,1.525431 -12.3125,16.65625 6.234623,15.130819 7.504,-6.861363 20.46875,3.125 12.96475,9.986361 -7.970983,16.833932 8.25,19 16.220984,2.166068 -2.162069,-9.921628 12.96875,-16.15625 15.130816,-6.234622 10.57614,15.308503 20.5625,2.34375 9.986361,-12.964751 -9.666067,-3.060266 -7.5,-19.28125 2.166068,-16.220983 18.547124,-1.525434 12.3125,-16.65625 -6.234622,-15.130818 -7.503999,6.83011 -20.46875,-3.15625 -12.96475,-9.98636 7.939733,-16.833934 -8.28125,-18.9999996 -2.027623,-0.270758 -3.514879,-0.291906 -4.59375,-0.15625 z m -0.1875,25.3749996 c 5.925335,10e-7 10.71875,4.824666 10.71875,10.75 10e-7,5.925333 -4.793416,10.71875 -10.71875,10.71875 -5.925333,10e-7 -10.75,-4.793416 -10.75,-10.71875 -10e-7,-5.925335 4.824666,-10.75 10.75,-10.75 z"
               id="path2146" />
            <path
               inkscape:connector-curvature="0"
               style="fill:none;stroke:url(#linearGradient3144);stroke-width:2.3874824;stroke-linecap:round;stroke-linejoin:round;stroke-miterlimit:4;stroke-opacity:1"
               d="m 44.590733,9.0945044 c -7.552094,0.9495906 4.895716,10.8884536 -8.34375,16.3437496 -15.130817,6.234621 -10.607391,-15.3085 -20.59375,-2.34375 -9.9863615,12.96475 9.697317,3.060267 7.53125,19.28125 -2.166068,16.220983 -18.5471225,1.525431 -12.3125,16.65625 6.234623,15.130819 7.504,-6.861363 20.46875,3.125 12.96475,9.986361 -7.970983,16.833932 8.25,19 16.220984,2.166068 -2.162069,-9.921628 12.96875,-16.15625 15.130816,-6.234622 10.57614,15.308503 20.5625,2.34375 9.986361,-12.964751 -9.666067,-3.060266 -7.5,-19.28125 2.166068,-16.220983 18.547124,-1.525434 12.3125,-16.65625 -6.234622,-15.130818 -7.503999,6.83011 -20.46875,-3.15625 -12.96475,-9.98636 7.939733,-16.833934 -8.28125,-18.9999996 -2.027623,-0.270758 -3.514879,-0.291906 -4.59375,-0.15625 z m -0.1875,25.3749996 c 5.925335,10e-7 10.71875,4.824666 10.71875,10.75 10e-7,5.925333 -4.793416,10.71875 -10.71875,10.71875 -5.925333,10e-7 -10.75,-4.793416 -10.75,-10.71875 -10e-7,-5.925335 4.824666,-10.75 10.75,-10.75 z"
               id="path2148" />
          </g>
        </g>
      </g>
    </g>
  </g>
</svg>
